<mxfile host="app.diagrams.net" modified="2023-10-12T14:12:28.260Z" agent="Mozilla/5.0 (X11; Linux x86_64; rv:109.0) Gecko/20100101 Firefox/117.0" version="22.0.4" etag="ZxIY4Z1ILLnv71bSZs1i" type="github">
  <diagram name="Страница — 1" id="Iith_4eQ054pH2GwK9r4">
    <mxGraphModel>
      <root>
        <mxCell id="0" />
        <mxCell id="1" parent="0" />
      </root>
    </mxGraphModel>
  </diagram>
</mxfile>
